<svg width="29" height="29" viewBox="0 0 29 29" fill="none" xmlns="http://www.w3.org/2000/svg">
<g id="twemoji:flag-saudi-arabia" clip-path="url(#clip0_4_1914)">
<path id="Vector" d="M25.4423 4.42505H3.31936C2.48116 4.42505 1.6773 4.75802 1.0846 5.35072C0.491908 5.94341 0.158936 6.74728 0.158936 7.58547L0.158936 21.8074C0.158936 22.6456 0.491908 23.4494 1.0846 24.0421C1.6773 24.6348 2.48116 24.9678 3.31936 24.9678H25.4423C26.2805 24.9678 27.0844 24.6348 27.6771 24.0421C28.2698 23.4494 28.6027 22.6456 28.6027 21.8074V7.58547C28.6027 6.74728 28.2698 5.94341 27.6771 5.35072C27.0844 4.75802 26.2805 4.42505 25.4423 4.42505Z" fill="#006C35"/>
<g id="Group">
<path id="Vector_2" d="M7.20584 11.5752C7.70519 11.6226 7.42944 10.7306 7.61038 10.5686C7.64435 10.4888 7.70756 10.488 7.7123 10.5892V11.3461C7.70756 11.5926 7.86953 11.6645 7.99516 11.7159C8.12632 11.7056 8.21323 11.7103 8.26459 11.8375L8.32621 13.1475C8.32621 13.1475 8.62962 13.2344 8.64384 12.4104C8.65885 11.9268 8.54744 11.5223 8.61302 11.4283C8.61539 11.3358 8.73312 11.3303 8.81529 11.3753C8.94566 11.467 9.00413 11.5808 9.20639 11.5357C9.51532 11.4512 9.70021 11.3011 9.70495 11.064C9.68678 10.8388 9.66149 10.6137 9.56431 10.3885C9.57774 10.3474 9.50505 10.2415 9.51848 10.2004C9.57379 10.2874 9.65833 10.2802 9.6773 10.2004C9.62515 10.0274 9.54377 9.86148 9.41103 9.78959C9.302 9.69319 9.14239 9.71294 9.08393 9.91363C9.05706 10.1443 9.16768 10.4193 9.33518 10.6429C9.37073 10.7306 9.4213 10.876 9.39918 11.0071C9.3099 11.0577 9.21982 11.0372 9.14555 10.9582C9.14555 10.9582 8.89983 10.7741 8.89983 10.733C8.96541 10.3158 8.91484 10.2684 8.8785 10.153C8.85322 9.99343 8.77736 9.94208 8.71574 9.83304C8.65411 9.76825 8.57115 9.76825 8.53164 9.83304C8.42261 10.0211 8.47317 10.4256 8.55218 10.6066C8.60828 10.7725 8.69519 10.8776 8.65411 10.8776C8.62013 10.9716 8.5506 10.9495 8.50004 10.8412C8.42735 10.6168 8.41313 10.2826 8.41313 10.1317C8.391 9.94524 8.3673 9.54623 8.24483 9.4451C8.16977 9.34318 8.05837 9.39216 8.01965 9.48618C8.01175 9.67107 8.01017 9.85674 8.0315 10.0282C8.11526 10.3276 8.14212 10.5915 8.18321 10.8989C8.19427 11.3105 7.94538 11.0775 7.95645 10.8736C8.01412 10.6089 7.99911 10.1917 7.94775 10.0859C7.90746 9.98079 7.85926 9.95393 7.76129 9.97131C7.68386 9.96499 7.48317 10.1846 7.42628 10.5481C7.42628 10.5481 7.37809 10.7353 7.35754 10.9021C7.32989 11.0901 7.20663 11.2228 7.11972 10.876C7.04466 10.6239 6.99884 10.0021 6.87321 10.1475C6.83687 10.6334 6.79341 11.4883 7.20584 11.5752Z" fill="white"/>
<path id="Vector_3" d="M7.95725 11.9299C7.54639 11.9378 6.94512 12.4696 6.92853 12.7643C7.36151 12.5557 7.78737 12.355 8.22825 12.1401C8.15714 12.0334 8.2243 11.9378 7.95725 11.9299Z" fill="white"/>
<path id="Vector_4" d="M10.2227 13.5239C10.4131 12.8895 10.1919 12.4217 10.2954 12.4241C10.5143 12.6603 10.8208 12.4557 10.888 12.3735C10.9172 12.3324 10.9891 12.3056 11.0397 12.3593C11.2111 12.4826 11.513 12.4241 11.5754 12.2076C11.6149 11.9902 11.6392 11.7703 11.6481 11.5495C11.5082 11.5929 11.4039 11.6221 11.3944 11.6798L11.3652 11.8679C11.3534 11.9287 11.2325 11.9311 11.2277 11.8536C11.1748 11.6127 10.9551 11.5811 10.8224 11.9548C10.7331 12.0275 10.5719 12.0417 10.5546 11.9334C10.5759 11.683 10.4748 11.649 10.2725 11.7667C10.2077 11.2698 10.1421 10.7949 10.0773 10.2979C10.1619 10.2956 10.2393 10.358 10.3159 10.2616C10.2314 9.99848 10.0528 9.4612 9.95408 9.42249C9.90588 9.36402 9.8648 9.40037 9.80238 9.41538C9.6965 9.44935 9.59774 9.541 9.62856 9.71878C9.75418 10.4812 9.83635 11.062 9.96119 11.8244C9.98015 11.9137 9.90588 12.0314 9.80949 12.0196C9.64594 11.909 9.60485 11.6846 9.32515 11.694C9.1221 11.6964 8.8906 11.9161 8.86215 12.1286C8.82818 12.2969 8.81633 12.4802 8.86215 12.6279C9.00437 12.7986 9.17582 12.782 9.32515 12.7433C9.44762 12.6927 9.54954 12.5695 9.59221 12.5987C9.62144 12.6343 9.59932 13.0396 9.01385 13.3509C8.6591 13.5097 8.37703 13.5461 8.22533 13.2569C8.1313 13.0759 8.23244 12.3885 8.00094 12.5481C7.31592 14.314 9.60485 14.559 9.86085 12.6208C9.88534 12.541 9.98173 12.4612 9.99832 12.5916C9.94539 14.3472 8.2277 14.4681 7.93615 13.9158C7.86346 13.7855 7.84213 13.4963 7.83501 13.3225C7.79156 12.9772 7.61063 13.1099 7.58218 13.452C7.55295 13.6424 7.56085 13.6962 7.56085 13.8787C7.65171 15.2653 9.86401 14.6696 10.2227 13.5239ZM9.3694 12.3245C9.35518 12.3514 9.29276 12.3403 9.24693 12.3403C9.19479 12.338 9.17029 12.3293 9.13869 12.2874C9.12447 12.24 9.16871 12.195 9.18847 12.1594C9.21296 12.1175 9.34491 12.0741 9.39152 12.191C9.39999 12.2132 9.4024 12.2373 9.39851 12.2608C9.39462 12.2842 9.38458 12.3062 9.3694 12.3245Z" fill="white"/>
<path id="Vector_5" d="M10.9061 10.7531C11.0436 10.7025 11.6954 9.95742 11.6954 9.95742C11.6614 9.92819 11.6314 9.90686 11.5974 9.87762C11.5611 9.84602 11.565 9.81441 11.5974 9.7836C11.7586 9.68958 11.7072 9.48336 11.6227 9.38934C11.5679 9.36281 11.5078 9.34929 11.4469 9.34984C11.3861 9.35039 11.3262 9.36499 11.2719 9.3925C11.1589 9.50074 11.132 9.67456 11.2213 9.7836C11.3082 9.82468 11.3952 9.91239 11.3375 9.96058C11.0712 10.245 10.3412 10.7357 10.4257 10.7531C10.4439 10.7768 10.8919 10.776 10.9061 10.7531ZM11.3888 9.58291C11.4307 9.57264 11.4844 9.60978 11.5097 9.66508C11.535 9.72039 11.5216 9.77333 11.4805 9.7836H11.4789C11.4378 9.79387 11.3841 9.75674 11.3588 9.70143C11.3343 9.64533 11.3477 9.59318 11.3888 9.58291ZM7.16098 14.1102C7.05352 14.3291 7.00849 14.179 6.999 14.0565C6.98695 13.8508 6.99729 13.6444 7.02982 13.441C7.05668 13.2672 7.02982 13.3201 6.97451 13.3904C6.73037 13.7792 6.70904 14.3607 6.84414 14.5337C6.91525 14.6159 7.03298 14.6522 7.12068 14.6254C7.27396 14.559 7.34112 14.2477 7.30478 14.1347C7.25263 14.0549 7.21233 14.0423 7.16098 14.1102ZM15.205 9.99535C15.4863 10.373 15.7534 10.7578 16.0149 11.1497C16.0665 11.4884 16.1034 11.8221 16.1255 12.1508C16.169 12.786 16.1816 13.4734 16.1421 14.1426C16.2606 14.1474 16.4526 13.9498 16.519 13.6614C16.5624 13.2624 16.5032 12.5521 16.4992 12.3167C16.494 12.1691 16.4869 12.0216 16.4779 11.8742C16.7892 12.383 17.0926 12.9156 17.3889 13.5074C17.4971 13.4568 17.4734 12.8516 17.4102 12.7662C17.1732 12.2582 16.8469 11.7557 16.7426 11.5629C16.7039 11.4918 16.5719 11.2895 16.4147 11.058C16.4007 10.8733 16.3785 10.6893 16.3483 10.5065C16.2993 10.1684 16.4882 10.5437 16.4621 10.3469C16.4013 10.0088 16.2132 9.78044 15.9936 9.47072C15.9225 9.37037 15.9248 9.34983 15.815 9.49521C15.7769 9.58254 15.7591 9.67735 15.7629 9.77254C15.7281 9.72242 15.6915 9.67366 15.653 9.62637L15.2935 9.31981C15.2137 9.26292 15.0194 9.1602 14.9846 9.33087C14.9693 9.45053 14.9752 9.57196 15.002 9.68958C15.0225 9.77412 15.145 9.91476 15.205 9.99535ZM15.7897 9.97638C15.8047 10.042 15.8205 10.1075 15.8308 10.1747L15.8427 10.2387C15.8094 10.1925 15.7749 10.1472 15.7392 10.1028C15.6096 9.94952 15.717 9.98271 15.7897 9.97638Z" fill="white"/>
<path id="Vector_6" d="M17.4773 13.6637C17.2024 13.9505 16.8057 14.3037 16.3743 14.4672C16.3277 14.5194 16.4897 14.743 16.6983 14.743C17.0483 14.7019 17.3564 14.5052 17.6417 13.9876C17.7183 13.8675 17.8526 13.6092 17.8558 13.4085C17.8818 12.2344 17.7973 11.3202 17.6211 10.4717C17.6093 10.4036 17.6126 10.3337 17.6306 10.267C17.6527 10.2402 17.7301 10.267 17.7712 10.2007C17.8305 10.139 17.6124 9.63336 17.4876 9.439C17.4433 9.35208 17.4283 9.29362 17.3548 9.44927C17.2774 9.57568 17.2261 9.79612 17.2324 10.0016C17.3991 11.1575 17.4505 12.1696 17.5595 13.3255C17.5682 13.4369 17.5516 13.5997 17.4773 13.6637ZM22.0836 10.7324C22.0718 10.6502 22.0354 10.459 22.0497 10.4345C22.0718 10.3761 22.1863 10.4409 22.2274 10.3737C22.2875 10.3129 21.9319 9.85617 21.8079 9.66181C21.7628 9.57489 21.7478 9.51643 21.6744 9.67208C21.5969 9.79849 21.5701 10.0253 21.6009 10.2244C21.7866 11.4798 21.9248 12.4232 21.9533 13.5365C21.9367 13.6424 21.9335 13.6992 21.8837 13.832C21.7739 13.9726 21.653 14.148 21.5385 14.2334C21.4247 14.3179 21.1821 14.3993 21.1023 14.4617C20.8519 14.6079 20.8511 14.7746 21.0549 14.7801C21.4041 14.739 21.8182 14.7106 22.1034 14.2792C22.18 14.1591 22.2709 13.8328 22.2748 13.6321C22.3009 12.458 22.2598 11.581 22.0836 10.7324ZM19.436 11.7098C19.4391 11.5486 19.4542 11.3353 19.4629 11.2017C19.4668 11.1519 19.4787 11.0958 19.5261 11.0832C19.5743 11.0706 19.6596 11.1322 19.6604 11.08C19.6509 10.9781 19.6304 10.8264 19.5727 10.7545C19.4937 10.6376 19.2843 10.666 19.2472 10.8493C19.2479 10.9173 19.2788 10.9536 19.2732 11.0153C19.2637 11.05 19.2274 11.0737 19.1413 11.0326C19.1555 11.02 19.0852 10.9228 19.0852 10.9228C19.018 10.8817 18.9279 10.9252 18.8703 10.9623C18.8496 11.0022 18.8373 11.0459 18.834 11.0907C18.8308 11.1356 18.8367 11.1806 18.8513 11.2231C18.9461 11.4024 19.2772 11.7066 19.436 11.7098Z" fill="white"/>
<path id="Vector_7" d="M19.3248 10.3362L20.0304 11.1997C20.0817 11.8524 20.0952 12.3865 20.1457 13.0391C20.1386 13.3156 20.0533 13.5566 19.9719 13.5914C19.9719 13.5914 19.8494 13.6625 19.7673 13.5843C19.7072 13.5598 19.4678 13.1853 19.4678 13.1853C19.3453 13.0731 19.2648 13.1047 19.1778 13.1853C18.9376 13.4168 18.8294 13.8513 18.6666 14.15C18.624 14.2172 18.5055 14.274 18.3735 14.1453C18.0393 13.6878 18.2352 13.0375 18.1942 13.205C17.8963 13.5408 18.0274 14.0963 18.0946 14.2164C18.1926 14.4123 18.2724 14.5387 18.4636 14.6359C18.6374 14.7639 18.7733 14.6833 18.8476 14.594C19.023 14.4115 19.0253 13.9493 19.1075 13.8561C19.1644 13.6878 19.3106 13.7162 19.3809 13.7913C19.4458 13.8817 19.5311 13.9556 19.6298 14.007C19.7933 14.1516 19.9885 14.1777 20.1805 14.0457C20.3116 13.9722 20.3978 13.8766 20.4744 13.6878C20.5597 13.4602 20.5131 12.4141 20.4957 11.7868C20.6182 11.9448 20.7375 12.1099 20.8584 12.2751C20.9113 12.7989 20.9414 13.3204 20.924 13.8529C20.9113 13.9596 21.2953 13.5369 21.2922 13.3362V12.889C21.477 13.1671 21.6572 13.4539 21.8263 13.7573C21.9321 13.702 21.8974 13.1055 21.8302 13.0233C21.6351 12.6962 21.3751 12.3557 21.1958 12.1123C21.1839 12.0815 21.1776 12.0467 21.1634 12.0175C21.0915 11.8508 21.1365 11.7165 21.1025 11.5395C21.0694 11.3617 21.078 11.0962 21.0267 10.8853C21.0125 10.8031 20.9698 10.5392 20.9824 10.5147C21.003 10.4555 21.082 10.5163 21.1207 10.4484C21.1784 10.3851 20.9208 9.71751 20.7897 9.5263C20.7422 9.44097 20.6569 9.4702 20.551 9.60926C20.4539 9.70091 20.4902 9.9095 20.5273 10.1078C20.6198 10.5882 20.6972 11.0488 20.7636 11.5047C20.6215 11.3158 20.478 11.128 20.333 10.9414L20.3267 10.9066C20.3267 10.8979 20.3053 10.4926 20.2864 10.3962C20.2832 10.3575 20.2737 10.3456 20.3148 10.3504C20.3583 10.3867 20.3638 10.3891 20.3914 10.4017C20.4357 10.4096 20.4744 10.3346 20.4483 10.2658L20.0398 9.51366C20.0075 9.48126 19.9648 9.4465 19.9134 9.52235C19.8814 9.55006 19.8557 9.58442 19.8383 9.62303C19.8208 9.66163 19.8119 9.70358 19.8123 9.74595C19.8249 9.92372 19.8558 10.1054 19.8676 10.284L19.885 10.3804C19.8668 10.3591 19.8447 10.3322 19.8352 10.3227C19.4884 9.9577 19.9948 10.2635 19.7688 9.9814C19.5776 9.77123 19.5223 9.70566 19.358 9.57924C19.2758 9.5263 19.226 9.42517 19.1992 9.59741C19.1865 9.74849 19.1826 9.90018 19.1873 10.0517C19.1873 10.1244 19.2608 10.2571 19.3248 10.3362ZM12.2921 11.1887C12.4912 11.2709 12.6184 10.8916 12.7006 10.476C12.7559 10.3591 12.7985 10.3464 12.827 10.4065C12.8199 10.9596 12.8665 11.082 13.0087 11.2503C13.3255 11.4952 13.5878 11.2811 13.6092 11.2606L13.8557 11.0141C13.9102 10.9564 13.9837 10.9524 14.0611 11.0038C14.137 11.0717 14.1267 11.1903 14.2879 11.2724C14.4238 11.327 14.7145 11.2851 14.7817 11.1681C14.8726 11.0133 14.8947 10.9596 14.9358 10.9011C15.0005 10.815 15.1112 10.8537 15.1112 10.8805C15.1009 10.9287 15.0361 10.9769 15.0803 11.0631C15.1578 11.1207 15.1752 11.0836 15.221 11.071C15.3822 10.9935 15.5023 10.6443 15.5023 10.6443C15.5094 10.5139 15.4367 10.525 15.3893 10.5519C15.3277 10.589 15.3237 10.6016 15.2621 10.6396C15.1831 10.6514 15.0306 10.7036 14.9555 10.5866C14.8781 10.446 14.8765 10.25 14.818 10.1086C14.818 10.0983 14.7153 9.88501 14.8109 9.87158C14.8591 9.88027 14.961 9.90713 14.9776 9.8218C15.0274 9.73805 14.8694 9.49944 14.7619 9.37855C14.6679 9.27584 14.5375 9.2632 14.4119 9.36828C14.3234 9.44966 14.3361 9.53973 14.3187 9.62585C14.3038 9.6866 14.3036 9.75 14.318 9.81085C14.3324 9.8717 14.3611 9.92826 14.4016 9.97587C14.4893 10.1489 14.6497 10.3725 14.5968 10.6854C14.5968 10.6854 14.5036 10.8339 14.34 10.815C14.2721 10.8 14.1615 10.7707 14.103 10.3362C14.0587 10.0067 14.1141 9.54605 13.9742 9.33036C13.9236 9.19999 13.8873 9.07436 13.764 9.29717C13.7308 9.38487 13.5886 9.51761 13.6921 9.79178C13.7767 9.96481 13.8106 10.2469 13.7727 10.5613C13.7143 10.6506 13.7016 10.6806 13.625 10.7699C13.5175 10.8853 13.4014 10.856 13.3121 10.8126C13.2283 10.7565 13.1636 10.7273 13.1256 10.5487C13.1327 10.2643 13.1485 9.7981 13.0964 9.69933C13.0198 9.54605 12.8933 9.60136 12.8388 9.64798C12.5789 9.8858 12.4509 10.2864 12.3727 10.6048C12.3008 10.8371 12.2241 10.7707 12.1704 10.6767C12.0392 10.5534 12.0305 9.59188 11.8717 9.75069C11.6165 10.4728 12.0155 11.2661 12.2921 11.1887Z" fill="white"/>
<path id="Vector_8" d="M16.0694 12.7404L15.9935 12.6969L14.5074 12.6898C14.4307 12.6606 14.4536 12.6353 14.5074 12.6147C14.8621 12.5665 15.4934 12.4638 15.5353 11.8578C15.5282 11.5426 15.3994 11.3356 15.0122 11.2787C14.7286 11.3008 14.5255 11.5765 14.5579 11.8792C14.5445 11.9613 14.5848 12.1209 14.5018 12.1391C13.9559 12.1889 13.3609 12.5302 13.3412 12.7751C13.308 12.798 13.2337 12.7317 13.2432 12.6274C13.2167 12.1813 13.0883 11.7472 12.8679 11.3585C12.6956 11.1862 12.7494 11.2431 12.634 11.3245C12.5597 11.4098 12.5463 11.4683 12.5503 11.6382C12.5503 11.6445 12.6893 12.0324 12.8071 12.3042C12.8853 12.5831 12.9588 12.9015 12.9058 13.2026C12.7225 13.6008 12.3535 13.9579 11.998 14.1515C11.8147 14.2108 11.6574 14.1894 11.6187 14.1483C11.5057 14.0725 11.5113 13.9326 11.52 13.9303C11.8194 13.7209 12.1623 13.5526 12.431 12.9893C12.51 12.7743 12.5337 12.644 12.4555 12.3113C12.4343 12.1939 12.3803 12.0849 12.2998 11.9969C12.348 11.9653 12.4863 12.0704 12.5076 12.0079C12.4677 11.8258 12.377 11.6587 12.2461 11.526C12.1394 11.4288 12.0233 11.4177 11.9253 11.507C11.8147 11.5686 11.791 11.7883 11.8439 11.9811C11.9024 12.1265 12.0612 12.1509 12.175 12.4425C12.175 12.4488 12.2161 12.6606 12.1576 12.7435C12.111 12.8889 11.5065 13.3638 11.4734 13.3851C11.4568 13.4056 11.4639 13.3748 11.4615 13.2958C11.4576 13.1994 11.5002 12.9719 11.4884 12.9703C11.2916 13.0975 11.226 13.487 11.1905 13.6024C10.6927 13.9461 10.1294 14.2021 9.80386 14.5513C9.63399 14.816 10.9716 14.2471 11.1273 14.1784C11.1621 14.2036 11.1581 14.3229 11.2513 14.4296C11.3904 14.6177 11.6843 14.7338 11.9727 14.6619C12.4547 14.4873 12.7336 14.1586 13.0164 13.7944C13.0567 13.7351 13.1199 13.6901 13.1784 13.7351C13.3728 14.1705 13.9345 14.4786 14.6591 14.511C14.8274 14.3064 14.746 14.2076 14.678 14.1649C14.678 14.1586 14.3201 14.0227 14.2656 13.8868C14.2324 13.7636 14.313 13.6553 14.4742 13.5731C14.9395 13.517 15.397 13.4546 15.8403 13.3124C15.845 13.1639 15.9311 12.9411 15.9904 12.8447C16.0473 12.7467 16.0781 12.7759 16.0694 12.7404ZM14.8471 11.8144C14.8692 11.7772 14.9427 11.7788 15.0114 11.8191C15.0802 11.8594 15.1189 11.9218 15.096 11.959C15.0739 11.9969 14.9996 11.9945 14.9309 11.9542C14.8621 11.9139 14.825 11.8523 14.8471 11.8144ZM14.249 13.3156C14.0894 13.3701 13.9361 13.4127 13.9361 13.6435C13.9954 13.9642 13.8547 13.8544 13.7718 13.8102C13.6738 13.7399 13.398 13.57 13.3585 13.2034C13.3522 13.1157 13.421 13.0422 13.5308 13.0422C13.6959 13.0872 13.9401 13.0904 14.1518 13.1125C14.3248 13.1236 14.411 13.2595 14.249 13.3156ZM8.74433 9.75614C8.91499 9.83831 9.23735 9.80354 9.22313 9.52701C9.22313 9.50251 9.21681 9.42034 9.21444 9.39822C9.17968 9.31684 9.08486 9.33659 9.06274 9.42113C9.05563 9.44879 9.07459 9.49303 9.0501 9.50725C9.03588 9.52148 8.98136 9.51278 8.98373 9.43693C8.98373 9.41244 8.96556 9.38637 8.95528 9.37136C8.94422 9.36424 8.9379 9.36187 8.91815 9.36187C8.89445 9.36266 8.89445 9.36899 8.8818 9.38953C8.87627 9.40928 8.86837 9.42982 8.86837 9.45274C8.86521 9.4796 8.85494 9.48908 8.83519 9.49382C8.81307 9.49382 8.81781 9.49619 8.80042 9.48434C8.78936 9.47249 8.77593 9.46775 8.77593 9.448C8.77557 9.42493 8.77184 9.40204 8.76487 9.38005C8.75486 9.36846 8.7409 9.36082 8.72299 9.35713C8.62976 9.35713 8.62344 9.4638 8.62897 9.50488C8.62028 9.51199 8.61712 9.7032 8.74433 9.75614Z" fill="white"/>
<path id="Vector_9" d="M13.9955 11.5573C13.9955 11.5328 13.9773 11.5075 13.967 11.4917C13.956 11.4846 13.9496 11.4822 13.9299 11.4822C13.9062 11.483 13.907 11.4893 13.8935 11.5099C13.888 11.5304 13.8801 11.5502 13.8801 11.5731C13.8777 11.6007 13.8667 11.6102 13.8469 11.6142C13.8248 11.6142 13.8295 11.6165 13.8114 11.6055C13.8003 11.5936 13.7869 11.5889 13.7869 11.5691C13.7865 11.5461 13.7828 11.5232 13.7758 11.5012C13.7658 11.4896 13.7519 11.4822 13.7339 11.4791C13.6407 11.4791 13.6344 11.5857 13.6391 11.626C13.632 11.6339 13.6281 11.8243 13.7553 11.8781C13.9267 11.9594 14.3336 11.912 14.2341 11.6489C14.2324 11.6057 14.2295 11.5625 14.2254 11.5194C14.1906 11.438 14.095 11.4585 14.0737 11.5423C14.0674 11.5699 14.0863 11.6142 14.061 11.6284C14.0484 11.6426 13.9931 11.6339 13.9955 11.5573ZM16.6795 10.9987C16.8501 11.0808 17.1717 11.0461 17.1575 10.7703C17.1558 10.7271 17.1529 10.6839 17.1488 10.6408C17.114 10.5594 17.0192 10.5799 16.9979 10.6637C16.9908 10.6913 17.0097 10.7356 16.9844 10.7498C16.9702 10.764 16.9157 10.7561 16.9181 10.6795C16.9181 10.655 16.8999 10.6289 16.8896 10.6139C16.8786 10.6068 16.8722 10.6044 16.8517 10.6044C16.828 10.606 16.8288 10.6115 16.8154 10.6321C16.8098 10.6526 16.8019 10.6724 16.8019 10.6953C16.7988 10.7229 16.7885 10.7324 16.7687 10.7364C16.7466 10.7364 16.7514 10.7387 16.7332 10.7277C16.7221 10.7158 16.7095 10.7111 16.7095 10.6913C16.7092 10.668 16.7055 10.6448 16.6984 10.6226C16.6879 10.611 16.6737 10.6036 16.6558 10.6005C16.5625 10.6005 16.5562 10.7071 16.5617 10.7474C16.5562 10.7553 16.5523 10.9457 16.6795 10.9987ZM16.7948 9.93045C16.8557 10.1011 16.7482 10.2639 16.8122 10.2876C16.8699 10.3144 16.952 10.1114 16.9821 9.92413C17.0176 9.77243 16.9094 9.46192 16.7561 9.39792C16.6629 9.3758 16.5301 9.43111 16.5728 9.55594C16.5515 9.61599 16.7608 9.81984 16.7948 9.93045ZM18.3711 13.9315C18.4904 13.9323 18.6279 13.659 18.6863 13.388C18.7187 13.015 18.6642 12.7883 18.6547 12.5686C18.6452 12.349 18.4074 10.6787 18.3584 10.5128C18.3008 10.1991 18.5899 10.4709 18.5583 10.2884C18.458 10.0584 18.2091 9.72424 18.1301 9.52434C18.0827 9.43901 18.1032 9.36316 17.9974 9.50222C17.9002 9.82221 17.8662 10.0829 17.9033 10.2821C18.1546 11.5936 18.4122 12.684 18.3711 13.9315ZM21.3387 10.5025C21.3664 10.5878 21.2968 10.8636 21.3545 10.8889C21.4075 10.9173 21.4817 10.6984 21.5094 10.4954C21.5244 10.384 21.443 9.99524 21.3032 9.92571C21.2178 9.90201 21.0969 9.96127 21.1364 10.0972C21.1167 10.1627 21.3079 10.3824 21.3387 10.5025ZM10.9733 13.3911C11.0247 13.4124 11.095 13.2513 11.1219 13.1019C11.1369 13.0198 11.0579 12.7345 10.9243 12.6832C10.8422 12.6658 10.73 12.6879 10.7647 12.8096C10.7608 12.8752 10.9465 12.9542 10.9575 13.1067C10.9844 13.1699 10.918 13.3729 10.9733 13.3911ZM7.37359 9.74478C7.39967 9.81036 7.34752 10.0197 7.40204 10.0395C7.45181 10.0616 7.52213 9.89411 7.54821 9.74004C7.56322 9.65471 7.55137 9.36553 7.35384 9.30627C7.27246 9.2881 7.15948 9.33313 7.19661 9.43664C7.17765 9.48562 7.34436 9.65313 7.37359 9.74478ZM11.2467 10.6716C11.0958 10.7537 11.0365 10.9971 11.1313 11.1385C11.219 11.2642 11.3581 11.2175 11.3771 11.2175C11.5256 11.2357 11.6133 10.9394 11.6133 10.9394C11.6133 10.9394 11.618 10.8565 11.4418 11.0137C11.3676 11.0279 11.3581 11.0003 11.3399 10.9576C11.3222 10.8802 11.3302 10.7992 11.3628 10.7269C11.3881 10.6534 11.3312 10.621 11.2467 10.6716ZM12.386 9.76058C12.4103 9.74542 12.4311 9.72536 12.4472 9.70168C12.4632 9.67801 12.4741 9.65125 12.4793 9.6231C12.5022 9.50775 12.3568 9.67762 12.3386 9.54883C12.3062 9.42953 12.3995 9.38054 12.4879 9.26518C12.4911 9.18538 12.4895 9.12929 12.3813 9.19407C12.3054 9.24543 12.1537 9.40187 12.149 9.58202C12.1443 9.68394 12.1253 9.68315 12.1924 9.74794C12.2406 9.81826 12.2888 9.81115 12.386 9.76058ZM13.4124 9.82221C13.5103 9.55673 13.5103 9.44454 13.5175 9.33155C13.4874 9.1601 13.3713 9.16563 13.2946 9.35605C13.2615 9.42795 13.2227 9.80641 13.2291 9.80641C13.203 9.91939 13.3468 9.96759 13.4124 9.82221ZM19.8675 11.705C19.8675 11.705 19.0751 12.2684 19.0561 12.2881C18.9771 12.3577 19.0166 12.6042 19.0561 12.5757C19.1122 12.5979 19.9094 12.0566 19.8936 11.9934C19.9307 11.995 19.9489 11.6766 19.8675 11.705ZM19.7704 13.2331C19.8233 13.2615 19.9631 13.0885 19.9576 12.8728C19.9734 12.7614 19.9173 12.3529 19.7783 12.2834C19.6929 12.2597 19.5791 12.3324 19.6187 12.4675C19.5989 12.5323 19.7166 12.759 19.7474 12.8791C19.7751 12.9652 19.7127 13.2078 19.7704 13.2331ZM15.2826 14.4151C15.2826 14.4222 15.3497 14.4799 15.4287 14.4341C15.5946 14.3701 15.6989 14.3084 15.9312 14.2571C15.9921 14.2563 15.9881 14.0927 15.8917 14.0872C15.7661 14.0935 15.6492 14.0998 15.5235 14.1994C15.4461 14.2168 15.4335 14.1702 15.4161 14.1275C15.3971 14.0224 15.4595 13.9497 15.4461 13.8715C15.4508 13.8762 15.3742 13.8059 15.296 13.8454C15.292 13.8454 15.1214 13.9608 15.0669 14.0414C15.0329 14.0674 15.0368 14.0896 15.0471 14.133C15.0732 14.1931 15.1198 14.1749 15.1719 14.1465C15.2415 14.137 15.2747 14.1828 15.2691 14.2658C15.2359 14.3708 15.2826 14.4096 15.2826 14.4151ZM20.4585 14.5463C20.4325 14.5913 20.4151 14.6592 20.4957 14.6806C20.6442 14.7224 20.9863 14.4996 20.9863 14.4957C21.0416 14.4538 21.0235 14.3756 21.0187 14.3756C20.9863 14.3385 20.9136 14.3598 20.8647 14.3543C20.8417 14.3543 20.7643 14.3424 20.8014 14.2745C20.8275 14.2378 20.8483 14.1976 20.8631 14.1551C20.886 14.1038 20.8662 14.0698 20.7825 14.0422C20.6979 14.0264 20.664 14.0343 20.5699 14.0422C20.5194 14.0532 20.502 14.0753 20.4925 14.137C20.4965 14.2302 20.5526 14.2255 20.611 14.2626C20.645 14.3061 20.6671 14.3456 20.6087 14.4159C20.5533 14.4672 20.5146 14.4957 20.4585 14.5463ZM20.3068 18.6469H19.1217V18.2518C19.1217 18.1471 19.0801 18.0466 19.006 17.9725C18.9319 17.8984 18.8314 17.8568 18.7266 17.8568C18.6219 17.8568 18.5214 17.8984 18.4473 17.9725C18.3732 18.0466 18.3316 18.1471 18.3316 18.2518V18.6469H8.8503C8.8503 18.6469 8.8503 19.437 11.2206 19.437H18.3316V19.8321C18.3316 19.9368 18.3732 20.0373 18.4473 20.1114C18.5214 20.1855 18.6219 20.2271 18.7266 20.2271C18.8314 20.2271 18.9319 20.1855 19.006 20.1114C19.0801 20.0373 19.1217 19.9368 19.1217 19.8321V19.437H19.9118V19.8321C19.9118 19.9368 19.9534 20.0373 20.0275 20.1114C20.1016 20.1855 20.2021 20.2271 20.3068 20.2271C20.4116 20.2271 20.5121 20.1855 20.5862 20.1114C20.6603 20.0373 20.7019 19.9368 20.7019 19.8321V19.042C20.7019 18.9372 20.6603 18.8367 20.5862 18.7626C20.5121 18.6885 20.4116 18.6469 20.3068 18.6469Z" fill="white"/>
</g>
</g>
<defs>
<clipPath id="clip0_4_1914">
<rect width="28.4438" height="28.4438" fill="white" transform="translate(0.158813 0.474609)"/>
</clipPath>
</defs>
</svg>
