<svg width="30" height="29" viewBox="0 0 30 29" fill="none" xmlns="http://www.w3.org/2000/svg">
<g id="twemoji:flag-united-states" clip-path="url(#clip0_4_1925)">
<path id="Vector" d="M28.6476 6.00526C28.1 5.06424 27.0926 4.42505 25.9257 4.42505H14.8642V6.00526H28.6476ZM0.642273 20.2272H29.0861V21.8074H0.642273V20.2272ZM14.8642 13.9063H29.0861V15.4865H14.8642V13.9063ZM14.8642 10.7459H29.0861V12.3261H14.8642V10.7459ZM0.642273 17.0667H29.0861V18.647H0.642273V17.0667ZM3.8027 24.9678H25.9257C27.0926 24.9678 28.1 24.3286 28.6476 23.3876H1.08078C1.62833 24.3286 2.63571 24.9678 3.8027 24.9678ZM14.8642 7.58547H29.0861V9.16568H14.8642V7.58547Z" fill="#B22334"/>
<path id="Vector_2" d="M0.696 22.3435C0.709169 22.4172 0.724707 22.4902 0.742616 22.5623C0.763686 22.6413 0.787916 22.7193 0.815306 22.7962C0.885626 23.0009 0.970957 23.1984 1.07841 23.3833L1.08078 23.3872H28.6476L28.6492 23.3841C28.7562 23.1983 28.8441 23.0021 28.9115 22.7986C28.9628 22.6501 29.0029 22.498 29.0316 22.3435C29.064 22.1697 29.0861 21.9911 29.0861 21.807H0.642273C0.642273 21.9911 0.664396 22.1689 0.696 22.3435ZM0.642273 18.6466H29.0861V20.2268H0.642273V18.6466ZM0.642273 15.4862V17.0664H29.0861V15.4862H14.8642H0.642273ZM14.8642 12.3257H29.0861V13.9059H14.8642V12.3257ZM14.8642 9.16531H29.0861V10.7455H14.8642V9.16531ZM0.743407 6.82975C0.763159 6.74916 0.790813 6.67252 0.816096 6.59509C0.788834 6.67234 0.764586 6.75062 0.743407 6.82975ZM14.8642 7.58509H29.0861C29.0861 7.401 29.064 7.22244 29.0316 7.04782C29.0039 6.89304 28.9635 6.74082 28.9107 6.59272C28.8432 6.38833 28.7551 6.19136 28.6476 6.00488H14.8642V7.58509Z" fill="#EEEEEE"/>
<path id="Vector_3" d="M14.8642 4.42505H3.8027C2.9645 4.42505 2.16063 4.75802 1.56794 5.35072C0.975245 5.94341 0.642273 6.74728 0.642273 7.58547L0.642273 15.4865H14.8642V4.42505Z" fill="#3C3B6E"/>
<path id="Vector_4" d="M2.22296 6.5785L2.71125 6.93326L2.52478 7.50608L3.01228 7.15212L3.50056 7.50608L3.3141 6.93326L3.80238 6.5785H3.19874L3.01228 6.00488L2.8266 6.5785H2.22296ZM3.80317 8.15871L4.29146 8.51347L4.10499 9.0863L4.59249 8.73233L5.08077 9.0863L4.89431 8.51347L5.3826 8.15871H4.77895L4.59249 7.58509L4.40681 8.15871H3.80317ZM6.9636 8.15871L7.45188 8.51347L7.26542 9.0863L7.75291 8.73233L8.2412 9.0863L8.05473 8.51347L8.54302 8.15871H7.93938L7.75291 7.58509L7.56724 8.15871H6.9636ZM10.124 8.15871L10.6123 8.51347L10.4258 9.0863L10.9133 8.73233L11.4016 9.0863L11.2152 8.51347L11.7034 8.15871H11.0998L10.9133 7.58509L10.7277 8.15871H10.124ZM3.80317 11.3191L4.29146 11.6739L4.10499 12.2467L4.59249 11.8928L5.08077 12.2467L4.89431 11.6739L5.3826 11.3191H4.77895L4.59249 10.7455L4.40681 11.3191H3.80317ZM6.9636 11.3191L7.45188 11.6739L7.26542 12.2467L7.75291 11.8928L8.2412 12.2467L8.05473 11.6739L8.54302 11.3191H7.93938L7.75291 10.7455L7.56724 11.3191H6.9636ZM10.124 11.3191L10.6123 11.6739L10.4258 12.2467L10.9133 11.8928L11.4016 12.2467L11.2152 11.6739L11.7034 11.3191H11.0998L10.9133 10.7455L10.7277 11.3191H10.124ZM5.38339 6.5785L5.87167 6.93326L5.68521 7.50608L6.1727 7.15212L6.66099 7.50608L6.47452 6.93326L6.96281 6.5785H6.35917L6.1727 6.00488L5.98703 6.5785H5.38339ZM8.54381 6.5785L9.03209 6.93326L8.84563 7.50608L9.33313 7.15212L9.82141 7.50608L9.63495 6.93326L10.1232 6.5785H9.51959L9.33313 6.00488L9.14745 6.5785H8.54381ZM11.7042 6.5785L12.1925 6.93326L12.0061 7.50608L12.4935 7.15212L12.9818 7.50608L12.7954 6.93326L13.2837 6.5785H12.68L12.4935 6.00488L12.3079 6.5785H11.7042ZM2.22296 9.73892L2.71125 10.0937L2.52478 10.6665L3.01228 10.3125L3.50056 10.6665L3.3141 10.0937L3.80238 9.73892H3.19874L3.01228 9.16531L2.8266 9.73892H2.22296ZM5.68521 10.6665L6.1727 10.3125L6.66099 10.6665L6.47452 10.0937L6.96281 9.73892H6.35917L6.1727 9.16531L5.98703 9.73892H5.38339L5.87167 10.0937L5.68521 10.6665ZM8.54381 9.73892L9.03209 10.0937L8.84563 10.6665L9.33313 10.3125L9.82141 10.6665L9.63495 10.0937L10.1232 9.73892H9.51959L9.33313 9.16531L9.14745 9.73892H8.54381ZM11.7042 9.73892L12.1925 10.0937L12.0061 10.6665L12.4935 10.3125L12.9818 10.6665L12.7954 10.0937L13.2837 9.73892H12.68L12.4935 9.16531L12.3079 9.73892H11.7042ZM2.22296 12.8993L2.71125 13.2541L2.52478 13.8269L3.01228 13.473L3.50056 13.8269L3.3141 13.2541L3.80238 12.8993H3.19874L3.01228 12.3257L2.8266 12.8993H2.22296ZM5.68521 13.8269L6.1727 13.473L6.66099 13.8269L6.47452 13.2541L6.96281 12.8993H6.35917L6.1727 12.3257L5.98703 12.8993H5.38339L5.87167 13.2541L5.68521 13.8269ZM8.54381 12.8993L9.03209 13.2541L8.84563 13.8269L9.33313 13.473L9.82141 13.8269L9.63495 13.2541L10.1232 12.8993H9.51959L9.33313 12.3257L9.14745 12.8993H8.54381ZM11.7042 12.8993L12.1925 13.2541L12.0061 13.8269L12.4935 13.473L12.9818 13.8269L12.7954 13.2541L13.2837 12.8993H12.68L12.4935 12.3257L12.3079 12.8993H11.7042Z" fill="white"/>
</g>
<defs>
<clipPath id="clip0_4_1925">
<rect width="28.4438" height="28.4438" fill="white" transform="translate(0.642334 0.474609)"/>
</clipPath>
</defs>
</svg>
