<svg width="31" height="31" viewBox="0 0 31 31" fill="none" xmlns="http://www.w3.org/2000/svg">
<g id="mingcute:instagram-fill">
<g id="Group">
<path id="Vector" d="M20.7747 4.27539C22.4214 4.27539 24.0006 4.92955 25.1651 6.09395C26.3295 7.25836 26.9836 8.83764 26.9836 10.4844V20.4187C26.9836 22.0654 26.3295 23.6447 25.1651 24.8091C24.0006 25.9735 22.4214 26.6277 20.7747 26.6277H10.8403C9.19359 26.6277 7.61432 25.9735 6.44991 24.8091C5.2855 23.6447 4.63135 22.0654 4.63135 20.4187V10.4844C4.63135 8.83764 5.2855 7.25836 6.44991 6.09395C7.61432 4.92955 9.19359 4.27539 10.8403 4.27539H20.7747ZM15.8075 10.4844C14.4901 10.4844 13.2267 11.0077 12.2952 11.9392C11.3636 12.8707 10.8403 14.1342 10.8403 15.4515C10.8403 16.7689 11.3636 18.0323 12.2952 18.9638C13.2267 19.8954 14.4901 20.4187 15.8075 20.4187C17.1249 20.4187 18.3883 19.8954 19.3198 18.9638C20.2513 18.0323 20.7747 16.7689 20.7747 15.4515C20.7747 14.1342 20.2513 12.8707 19.3198 11.9392C18.3883 11.0077 17.1249 10.4844 15.8075 10.4844ZM15.8075 12.9679C16.4662 12.9679 17.0979 13.2296 17.5636 13.6954C18.0294 14.1611 18.2911 14.7928 18.2911 15.4515C18.2911 16.1102 18.0294 16.7419 17.5636 17.2077C17.0979 17.6734 16.4662 17.9351 15.8075 17.9351C15.1488 17.9351 14.5171 17.6734 14.0513 17.2077C13.5856 16.7419 13.3239 16.1102 13.3239 15.4515C13.3239 14.7928 13.5856 14.1611 14.0513 13.6954C14.5171 13.2296 15.1488 12.9679 15.8075 12.9679ZM21.3955 8.62167C21.0662 8.62167 20.7504 8.7525 20.5175 8.98538C20.2846 9.21826 20.1538 9.53411 20.1538 9.86346C20.1538 10.1928 20.2846 10.5087 20.5175 10.7415C20.7504 10.9744 21.0662 11.1053 21.3955 11.1053C21.7249 11.1053 22.0408 10.9744 22.2736 10.7415C22.5065 10.5087 22.6373 10.1928 22.6373 9.86346C22.6373 9.53411 22.5065 9.21826 22.2736 8.98538C22.0408 8.7525 21.7249 8.62167 21.3955 8.62167Z" fill="white"/>
</g>
</g>
</svg>
