<svg width="31" height="31" viewBox="0 0 31 31" fill="none" xmlns="http://www.w3.org/2000/svg">
<g id="ri:whatsapp-fill">
<path id="Vector" d="M15.5962 3.03369C22.4546 3.03369 28.0141 8.5932 28.0141 15.4516C28.0141 22.31 22.4546 27.8695 15.5962 27.8695C13.4016 27.8733 11.2457 27.2925 9.34995 26.1869L3.18321 27.8695L4.86211 21.7003C3.75562 19.804 3.1744 17.6471 3.17824 15.4516C3.17824 8.5932 8.73775 3.03369 15.5962 3.03369ZM11.3641 9.61519L11.1158 9.62513C10.9552 9.63619 10.7983 9.67837 10.6538 9.74931C10.5192 9.82569 10.3962 9.92104 10.2887 10.0324C10.1397 10.1728 10.0553 10.2945 9.96464 10.4124C9.50533 11.0096 9.25803 11.7428 9.26178 12.4962C9.26427 13.1046 9.42322 13.697 9.67158 14.2508C10.1795 15.3709 11.0152 16.5568 12.1179 17.6558C12.3837 17.9203 12.6444 18.186 12.9251 18.4332C14.2953 19.6394 15.9281 20.5094 17.6936 20.9739L18.3989 21.0819C18.6286 21.0943 18.8584 21.0769 19.0893 21.0658C19.4509 21.0467 19.804 20.9488 20.1237 20.7789C20.2862 20.6949 20.4449 20.6037 20.5994 20.5057C20.5994 20.5057 20.6519 20.4701 20.7546 20.394C20.9222 20.2698 21.0253 20.1816 21.1644 20.0363C21.2687 19.9287 21.3556 19.8037 21.4251 19.6613C21.522 19.4589 21.6189 19.0727 21.6586 18.7511C21.6884 18.5052 21.6797 18.3711 21.676 18.2879C21.671 18.155 21.5605 18.0172 21.44 17.9588L20.7173 17.6347C20.7173 17.6347 19.637 17.1641 18.9763 16.8635C18.9072 16.8334 18.8331 16.8162 18.7578 16.8126C18.6728 16.8037 18.5869 16.8132 18.5059 16.8404C18.4249 16.8676 18.3507 16.9119 18.2884 16.9703C18.2822 16.9678 18.199 17.0386 17.3012 18.1264C17.2496 18.1957 17.1786 18.248 17.0973 18.2768C17.0159 18.3055 16.9278 18.3094 16.8442 18.2879C16.7632 18.2663 16.684 18.2389 16.607 18.2059C16.453 18.1413 16.3996 18.1165 16.2941 18.0718C15.5811 17.7612 14.9212 17.341 14.3382 16.8263C14.1818 16.6897 14.0365 16.5407 13.8875 16.3966C13.399 15.9287 12.9732 15.3994 12.6208 14.822L12.5476 14.7041C12.4957 14.6243 12.4532 14.5389 12.4209 14.4495C12.3737 14.2669 12.4967 14.1204 12.4967 14.1204C12.4967 14.1204 12.7984 13.7901 12.9387 13.6113C13.0753 13.4374 13.1908 13.2685 13.2653 13.1481C13.4119 12.9122 13.4578 12.67 13.3808 12.4825C13.0331 11.6331 12.6738 10.7883 12.3029 9.94799C12.2297 9.78159 12.0124 9.66238 11.8149 9.63879C11.7479 9.63051 11.6808 9.62389 11.6137 9.61892C11.447 9.60935 11.2798 9.61101 11.1133 9.62389L11.3641 9.61519Z" fill="white"/>
</g>
</svg>
